<svg width="10" height="10" viewBox="0 0 10 10" xmlns="http://www.w3.org/2000/svg"><title>External Link</title><g fill="#718fa2" fill-rule="evenodd"><path d="M7 6c0-.25.203-.453.453-.453S8 5.75 8 6v3c0 .747-.254 1-1 1H1c-.747 0-1-.253-1-1V3c0-.747.253-1 1-1h3c.25 0 .453.296.453.547C4.453 2.797 4.25 3 4 3H1.5c-.246 0-.5.254-.5.5v5c0 .246.254.5.5.5h5c.246 0 .5-.254.5-.5V6zm-.5-5C6.25 1 6 .75 6 .5s.25-.5.5-.5h3c.25 0 .5.25.5.5v3c0 .25-.25.5-.5.5S9 3.75 9 3.5V1H6.5z" fill-rule="nonzero"/><rect transform="rotate(-45 6.79 3.166)" x="2.813" y="2.666" width="7.955" height="1" rx=".5"/></g></svg>
